<svg xmlns="http://www.w3.org/2000/svg" width="264.775" height="327.016" viewBox="0 0 264.775 327.016"><defs><style>.a{fill:#fff;}.b{fill:#fcdc4a;}.c{fill:#211715;}</style></defs><path class="a" d="M20.249,178.717c5.2,5.905,15.266,12.865,21.383,15.125,6.068,20.27,12.637,47.442,21.131,69.235a31.457,31.457,0,0,0,5.277,9.079c2.854,3.155,6.369,6.182,10.566,6.836,4.107.65,7.694,1.15,11.849-.284.946-.5,3.267-1.311,5.3-2.059l.343-.126c.168-1.546.307-2.762.41-3.577.769-14.5.717-28.953.161-44.011A109.991,109.991,0,0,0,86.283,223.3c-6.36-12.215-13.537-26.51-17.744-38.491-.928-3.183-2.033-7.753-1.917-10.625.135-3.317.159-4.9.256-8.217a16.968,16.968,0,0,0-1.524-7.283,18.643,18.643,0,0,0-4.127-5.646c-4.409-3.738-7.331-6.856-12.014-9.986a7.343,7.343,0,0,0-4.7-1.093,4.272,4.272,0,0,0-3.739,2.691c-.63,1.99.7,4.018,1.963,5.681l3.911,5.157,1.614,2.13-.457-.233c-1.484-.754-8.207-3.73-9.474-4.808-5.657-4.812-10.223-9.284-15.814-13.658a6.544,6.544,0,0,0-4.624-1.746,4.9,4.9,0,0,0-3.7,2c-1.438-2.576-5.277-1.595-6.308,1.623a3.69,3.69,0,0,0-3.051.92c-1.443,1.407-1.105,4.236-.711,5.124a16.2,16.2,0,0,0,4.724,5.986,3.6,3.6,0,0,0-5.782-.1c-1.363,1.881-.293,5.067.262,5.9a121.275,121.275,0,0,0,16.92,20.1"></path><path class="a" d="M203.225,72.638a6.748,6.748,0,0,1,4.876-1.786,6.262,6.262,0,0,1,5.623,3.124c1.91,3.314,1.829,9.419.547,13.2-.908,2.675-2.4,6.768-5.983,9.7a7.431,7.431,0,0,1-5.733,1.654l-.55-.093a43.575,43.575,0,0,1-1.972,5.355c-1.458,3.956-9.513,17.831-19.7,23.241.152,1.957.405,3.892.746,5.838.533,3.05.368,5.769,4.612,7.3.145.053,3.538,1.66,6.786,3.2l-.261.241c-5.454,5.214-15.047,9.678-26.445,10.739a3.416,3.416,0,0,0-2.783,2.02,21.48,21.48,0,0,1-2.767,4.656,38.524,38.524,0,0,1-2.694-4.7,3.455,3.455,0,0,0-2.857-1.927c-10.445-.879-19.539-4.636-25.409-9.225,0,0-.51-.405-1.32-1.02l-.114-.085c3.907-1.8,8.266-3.837,8.422-3.894,4.244-1.535,4.061-4.254,4.612-7.3.3-1.767.543-3.4.688-5.1-5.028-2.192-9.5-5.894-13.744-10.975a51.318,51.318,0,0,1-9.733-18.362,7.3,7.3,0,0,1-6.2-1.555c-3.587-2.935-5.075-7.028-5.983-9.7-1.282-3.778-1.363-9.883.548-13.2a6.26,6.26,0,0,1,5.622-3.124,6.749,6.749,0,0,1,4.877,1.786S101.4,29.5,160.067,29.5,203.225,72.638,203.225,72.638Z"></path><path class="a" d="M213.409,185.337H192.468a1.473,1.473,0,0,0-1.474,1.473v6.378a1.47,1.47,0,0,0,1.469,1.474H213.4a1.474,1.474,0,0,0,1.474-1.474V186.81A1.469,1.469,0,0,0,213.409,185.337Z"></path><path class="a" d="M123,251.509c3.8-3.135,41.069-31.058,48.494-35.841C187.5,236.4,215.345,276.4,220.052,283.416c-6.331,5.106-41.6,31.84-49.181,37.2-6.766-9.394-40.159-56.783-47.872-69.109"></path><path class="a" d="M253.8,226.273a293.611,293.611,0,0,1-30.2,6.645c-.165,5.453-.258,10.834-.263,16.188-8.4,7.724-13.562,9.908-26.964,17.876l-11.028,4.645a7.11,7.11,0,0,1-5.164.141c-2.8-1.012-5.356-1.8-8.9-3.063a53.062,53.062,0,0,0-6.038-.993c-2.626-.267-4.566-.575-7.205-.653-3.491-.1-5.523-.333-6.876,1.174a4,4,0,0,0-.91,3.264c.5,4.785,9.116,7.179,13.207,9.787a45.724,45.724,0,0,1-11.369,4.139,65.942,65.942,0,0,1-7.3-1.939c-2-.675-4.558.95-5.26,2.354a4.54,4.54,0,0,0,1.373,5.6,18.447,18.447,0,0,0,2.8,1.572,9.3,9.3,0,0,0,.862,6.913c1.053,1.7,2.519,3.783,4.355,4.581a23.8,23.8,0,0,0,6.408,10.937c1.274,1.3,5.672,2.238,6.985,1.874,11.063-3.068,19.67-9.477,28.186-17.132a24.052,24.052,0,0,1,4.413-2.984c4.367-1.716,47.276-18.349,54.389-23.251,5.281-3.616,10.142-9.887,11.391-15.534,1.042-4.667.992-10.213-.629-18.833a108.885,108.885,0,0,0-2.954-12.248s-.2-.718-.535-1.916C255.682,225.709,254.756,225.992,253.8,226.273Z"></path><path class="b" d="M126.714,16.153l-6.223,5.118c-9.382,6.822-12.5,15.505-13.242,33.006a55.416,55.416,0,0,0,2.072,17.134,7.728,7.728,0,0,1,2.73-.559,6.749,6.749,0,0,1,4.877,1.786l4.11-1.06a27.212,27.212,0,0,1,4.351-12.485c4.546-6.866,11.6-12.241,19.662-13.894l1.608-5.019c6.007-2.122,37.457,8.68,49.094,12.41l2.426.628a20.616,20.616,0,0,1,1.527,3.641,22.83,22.83,0,0,1,.989,4.846c.317,3.836.16,6.759.3,11.375l2.228-.442a6.748,6.748,0,0,1,4.876-1.786,7.145,7.145,0,0,1,3.629,1.023c2.93-10.577,3.32-19.9.176-32.108A49.385,49.385,0,0,0,195.6,14.748c-9.249-7.336-20.737-11.661-35.262-12.306-11.97-.533-24.419,3.588-32.168,12.512Z" style="fill: rgb(112, 218, 157);"></path><path class="b" d="M226.529,297.29l-.952-12.375c-5.337,2.219-10.827,4.439-15.681,6.378-13.006,9.96-33.461,25.391-39.025,29.325-.822-1.141-2.042-2.851-3.555-4.981a51.034,51.034,0,0,1-5.006,1.683c-1.313.364-5.711-.576-6.985-1.874a23.8,23.8,0,0,1-6.408-10.937c-1.836-.8-3.3-2.878-4.355-4.581a9.3,9.3,0,0,1-.862-6.913,18.447,18.447,0,0,1-2.8-1.572,4.54,4.54,0,0,1-1.373-5.6c.694-1.388,3.2-2.984,5.19-2.368-9.276-13.328-18.188-26.319-21.719-31.961,3.8-3.135,41.069-31.058,48.494-35.841,9.474,12.267,23.092,31.285,33.608,46.222,7.475-4.323,11.951-7,18.237-12.784,0-1.08.021-2.169.029-3.251l-.013-.262c.008-1,.028-2.009.042-3.013.011-.779.019-1.558.033-2.339q.054-3.027.143-6.079c.012-.416.016-.827.029-1.244h0l.047-.008c.4-.068.824-.141,1.253-.215l.4-.07c.437-.076.882-.155,1.343-.237l.073-.013,1.493-.271.4-.073c.486-.09.979-.182,1.483-.278l.123-.023c.528-.1,1.067-.2,1.612-.309l.455-.089q.775-.151,1.569-.31l.138-.027q.852-.171,1.722-.35l.457-.095q.807-.167,1.626-.34l.164-.035c.589-.125,1.183-.253,1.777-.383l.461-.1q.811-.18,1.626-.363l.207-.046q.894-.2,1.787-.413l.451-.106q.805-.191,1.606-.384l.224-.055q.883-.214,1.754-.436l.444-.113q.781-.2,1.552-.4l.221-.058q.852-.226,1.683-.458l.426-.118q.729-.206,1.441-.412l.225-.065q1.374-.4,2.66-.817a59.285,59.285,0,0,0,5.895-2.191l-.308-1.167c-7.373-21.019-16.494-44-17.642-46.54-2.347-5.2-3.816-7.525-5.571-9.484a39.542,39.542,0,0,0-3.075-2.972,80.15,80.15,0,0,0-8.552-5.278c-7.2-3.666-23.494-9.933-30.1-12.476l-4.759-1.89c-5.423,5.285-15.1,9.834-26.62,10.907a3.416,3.416,0,0,0-2.783,2.02,21.48,21.48,0,0,1-2.767,4.656,38.394,38.394,0,0,1-2.694-4.7,3.455,3.455,0,0,0-2.857-1.927c-10.445-.879-19.539-4.636-25.408-9.225,0,0-.75-.595-1.876-1.441a353.569,353.569,0,0,0-34.148,13.711c-5.085,2.145-13.635,10.605-17.73,19.83-1.169,2.654-3.448,8.2-5.142,12.4,4.269,10.863,10.406,23.036,15.928,33.641a108.389,108.389,0,0,1,10.378,5.619c.559,15.059.611,29.515-.158,44.012-.722,5.7-3.184,30.9-5.181,51.673H229.1c-.284-2.839-.581-5.754-.893-8.773C226.424,297.62,226.8,300.785,226.529,297.29ZM190.994,186.81a1.473,1.473,0,0,1,1.474-1.473h20.941a1.469,1.469,0,0,1,1.469,1.473v6.378a1.474,1.474,0,0,1-1.474,1.474H192.463a1.47,1.47,0,0,1-1.469-1.474Z" style="fill: rgb(112, 218, 157);"></path><path class="c" d="M128.49,146.392q3.471-1.6,6.938-3.213c.631-.292,1.266-.575,1.893-.873.448-.213-1.044.422-.18.086.357-.139.712-.285,1.059-.446a8.515,8.515,0,0,0,1.621-.992,8.227,8.227,0,0,0,3.008-5.322c.459-2.6.881-5.228,1.116-7.86a2.418,2.418,0,0,0-2.4-2.4,2.45,2.45,0,0,0-2.4,2.4c-.2,2.177-.547,4.268-.929,6.495-.069.408-.148.814-.257,1.213a4.387,4.387,0,0,0-.18.575q-.094.252.084-.175c-.047.105-.1.208-.149.309-.08.155-.178.3-.263.448q-.226.321.055-.057c-.079.094-.161.186-.247.274a4.983,4.983,0,0,1-.43.392c.406-.33-.207.113-.3.17a5.237,5.237,0,0,1-.935.451c-.307.12-.607.255-.906.392-.657.3-1.31.6-1.965.908q-3.325,1.54-6.652,3.08a2.42,2.42,0,0,0-.861,3.284,2.456,2.456,0,0,0,3.284.861Z"></path><path class="c" d="M177.967,127.524c.223,2.491.641,4.949,1.016,7.42A9.521,9.521,0,0,0,181.045,140a7.908,7.908,0,0,0,2.493,1.861c.334.161.679.3,1.022.442q.242.1.488.19-.8-.345-.474-.2c.2.1.407.189.61.284,2.057.963,4.109,1.94,6.162,2.912a2.468,2.468,0,0,0,3.284-.861,2.421,2.421,0,0,0-.861-3.284q-2.9-1.374-5.805-2.744c-.541-.254-1.081-.522-1.64-.736a6.19,6.19,0,0,1-.964-.47c-.179-.107-.354-.221-.521-.344.444.328-.075-.1-.16-.183-.054-.055-.429-.513-.213-.222s-.151-.26-.184-.319c-.081-.145-.15-.294-.221-.443.158.329.106.259.008-.042a13.2,13.2,0,0,1-.444-2.083c-.333-2.164-.666-4.095-.858-6.231a2.4,2.4,0,1,0-4.8,0Z"></path><path class="c" d="M129.868,16.651c11.868-13.5,32-13.967,48-8.743a49.623,49.623,0,0,1,20.742,12.873,46.393,46.393,0,0,1,10.8,18.929,57.757,57.757,0,0,1,.275,30.56c-.781,2.992,3.847,4.268,4.628,1.276a62.506,62.506,0,0,0,.537-29.822,52.759,52.759,0,0,0-10.619-21.792,53.039,53.039,0,0,0-21.871-15.5A68.295,68.295,0,0,0,154.078.187c-10.371.944-20.63,5.137-27.6,13.07-2.032,2.312,1.35,5.72,3.394,3.394Z"></path><path class="c" d="M111.457,70.06a57.125,57.125,0,0,1-1.852-12.733,88.031,88.031,0,0,1,.737-12.01c.7-5.737,2.089-11.311,5.364-16a27.967,27.967,0,0,1,6-5.969,2.472,2.472,0,0,0,.861-3.284,2.419,2.419,0,0,0-3.284-.861,31.158,31.158,0,0,0-11.016,14.064c-2.7,6.979-3.32,14.924-3.456,22.342a61.509,61.509,0,0,0,2.02,15.732c.734,3,5.364,1.729,4.629-1.276Z"></path><path class="c" d="M200.505,94.632a53.473,53.473,0,0,1-2.941,8.919c0-.01.2-.428-.012.015-.094.2-.182.4-.276.592-.205.428-.42.851-.641,1.271-.525,1-1.086,1.971-1.671,2.933a53.966,53.966,0,0,1-11.574,13.761,21.041,21.041,0,0,1-8.516,4.42c-3.008.7-1.735,5.326,1.276,4.628,6.6-1.53,12.1-6.347,16.407-11.364a58.94,58.94,0,0,0,9.108-13.748c.156-.345.305-.695.45-1.046.039-.1.273-.66.136-.338-.145.339.014-.019.038-.073.158-.347.3-.7.448-1.053q.237-.573.455-1.153a43.09,43.09,0,0,0,1.942-6.488,2.459,2.459,0,0,0-1.676-2.952,2.424,2.424,0,0,0-2.953,1.676Z"></path><path class="c" d="M114.9,95.755a54.242,54.242,0,0,0,7.681,18.032c3.9,5.845,9,11.312,15.182,14.772a30.347,30.347,0,0,0,10.368,3.562,2.479,2.479,0,0,0,2.952-1.676,2.418,2.418,0,0,0-1.676-2.953c-7.935-1.177-14.2-5.761-19.342-11.732a49.327,49.327,0,0,1-10.537-21.281c-.683-3.012-5.312-1.737-4.628,1.276Z"></path><path class="c" d="M151.964,109.254a17.8,17.8,0,0,0,8.569,1.988,13.979,13.979,0,0,0,8.686-2.579,2.4,2.4,0,0,0,0-3.394,2.475,2.475,0,0,0-3.394,0c.739-.576.208-.165.018-.044-.17.109-.345.21-.523.3-.093.048-.188.091-.281.139-.2.106-.365.041.136-.049a6.2,6.2,0,0,0-.722.263,13.172,13.172,0,0,1-2.021.461c.363-.056.054-.009-.139.01s-.4.036-.6.049c-.478.031-.957.043-1.436.04-.43,0-.859-.017-1.287-.046-.2-.014-.393-.03-.589-.049-.063-.007-.78-.125-.231-.024a17.615,17.615,0,0,1-1.888-.419c-.265-.079-.523-.174-.784-.263-.6-.2.4.2-.136-.052-.324-.153-.643-.312-.96-.479a2.4,2.4,0,0,0-2.422,4.144Z"></path><path class="c" d="M159.221,89.186a39.654,39.654,0,0,1,.936,4.279l-.086-.638a2.588,2.588,0,0,1,.016.59l.086-.638a1.434,1.434,0,0,1-.065.266l.242-.573a1.138,1.138,0,0,1-.094.171l.375-.486a.962.962,0,0,1-.14.138l.486-.376a2.679,2.679,0,0,1-.339.18l.574-.242a2.434,2.434,0,0,1-.572.166l.638-.085a2.288,2.288,0,0,1-.536,0l.638.085c-.2-.028-.4-.077-.6-.1a1.827,1.827,0,0,0-.958-.043,1.777,1.777,0,0,0-.892.285,2.4,2.4,0,0,0-.861,3.283,2.292,2.292,0,0,0,1.434,1.1c.479.065.943.186,1.43.207a4.6,4.6,0,0,0,2.13-.51,3.117,3.117,0,0,0,1.715-2.05,5.069,5.069,0,0,0-.02-2.186c-.233-1.379-.551-2.745-.906-4.1a2.4,2.4,0,0,0-2.952-1.676,2.447,2.447,0,0,0-1.677,2.952Z"></path><path class="c" d="M136.8,77.015c-.715,2.322-.249,7.663,4.15,8.117,5.814-.034,6.123-6.492,4.166-9.528C143.511,73.118,138.8,72.084,136.8,77.015Z"></path><path class="c" d="M183.355,77.015c.715,2.322.249,7.663-4.149,8.117-5.815-.035-6.124-6.492-4.167-9.529C176.641,73.117,181.353,72.084,183.355,77.015Z"></path><path class="c" d="M204.922,74.335a4.673,4.673,0,0,1,4.127-.971,4.187,4.187,0,0,1,1.723.753c-.21-.159.293.284.289.28q.16.163.309.337-.229-.312,0,.006c1.539,2.268,1.573,5.431,1.355,8.069a20.56,20.56,0,0,1-2.428,7.75c-1.566,2.954-4.054,6.059-7.741,5.571a2.412,2.412,0,0,0-2.4,2.4,2.461,2.461,0,0,0,2.4,2.4c7.641,1.011,12.316-7.4,14.172-13.566,1.633-5.427,1.644-13.8-3.533-17.392a9.664,9.664,0,0,0-11.666.968c-2.3,2.067,1.1,5.453,3.394,3.395Z"></path><path class="c" d="M118.625,70.94a9.74,9.74,0,0,0-10.793-1.476,9.4,9.4,0,0,0-4.69,6.387,24.3,24.3,0,0,0,3.5,18.7c2.413,3.665,6.267,7,10.958,6.38a2.479,2.479,0,0,0,2.4-2.4c0-1.164-1.106-2.571-2.4-2.4-3.688.488-6.172-2.618-7.74-5.571a20.5,20.5,0,0,1-2.428-7.75c-.219-2.638-.184-5.8,1.354-8.069q.228-.318,0-.006.147-.174.308-.337c.044-.041.519-.454.29-.28a4.163,4.163,0,0,1,1.723-.753,4.672,4.672,0,0,1,4.127.971c2.293,2.057,5.7-1.327,3.394-3.395Z"></path><path class="c" d="M144.413,42.885a33.167,33.167,0,0,0-17,9.817,31.955,31.955,0,0,0-8.777,18.876,2.415,2.415,0,0,0,2.4,2.4,2.455,2.455,0,0,0,2.4-2.4c1.236-11.664,10.892-21.65,22.251-24.064,3.02-.642,1.742-5.27-1.276-4.629Z"></path><path class="c" d="M196.391,50.275c-6.758-2.168-13.489-4.418-20.275-6.5a172.969,172.969,0,0,0-21.977-5.706c-2.519-.42-5.607-1.048-8.118-.206-2.914.977-1.664,5.614,1.276,4.628.163-.055.335-.081.5-.135.555-.183-.511,0,.015-.009.485-.005.964-.05,1.451-.036.557.015,1.113.059,1.667.116.166.017.9.1.663.074-.165-.021.732.109.943.142,3.278.526,6.516,1.313,9.726,2.151,7.671,2,15.239,4.393,22.78,6.831,3.36,1.087,6.713,2.2,10.076,3.276,2.948.946,4.21-3.687,1.276-4.629Z"></path><path class="c" d="M191.955,48.984a21.025,21.025,0,0,1,6.11,11.139c.831,4.2.409,8.7.532,12.957.089,3.082,4.89,3.095,4.8,0-.14-4.859.251-9.894-.8-14.674a25.559,25.559,0,0,0-7.252-12.816c-2.212-2.159-5.609,1.232-3.394,3.394Z"></path><path class="c" d="M91.739,185.736c1.495,20.68,2.845,41.4,2.943,62.137q.033,7.149-.148,14.3c-.105,3.984-.111,8.026-.571,11.987C93.23,280.473,92.627,286.8,92,293.129q-1.566,15.741-3.079,31.487a2.417,2.417,0,0,0,2.4,2.4,2.452,2.452,0,0,0,2.4-2.4c1.583-16.356,3.076-32.727,4.886-49.06a224.893,224.893,0,0,0,.881-24.2c.023-9.89-.259-19.779-.716-29.658-.556-12-1.365-23.981-2.231-35.959a2.458,2.458,0,0,0-2.4-2.4,2.42,2.42,0,0,0-2.4,2.4Z"></path><path class="c" d="M223.139,286.616c.533,6.959,1.2,13.9,1.881,20.848.562,5.718,1.167,11.432,1.719,17.152a2.467,2.467,0,0,0,2.4,2.4,2.417,2.417,0,0,0,2.4-2.4c-1.147-11.872-2.661-23.742-3.439-35.647-.051-.784-.1-1.569-.161-2.353a2.459,2.459,0,0,0-2.4-2.4,2.419,2.419,0,0,0-2.4,2.4Z"></path><path class="c" d="M213.409,182.937h-17.64c-1.681,0-3.843-.366-5.336.579a4.044,4.044,0,0,0-1.839,3.391c-.06,1.583,0,3.18,0,4.764,0,2.139.239,4.4,2.658,5.189a10.623,10.623,0,0,0,3.232.2h14.222c1.649,0,3.353.121,5-.03a3.923,3.923,0,0,0,3.577-3.844c.071-1.544,0-3.109,0-4.655,0-.572.026-1.151,0-1.723a3.982,3.982,0,0,0-3.869-3.873,2.415,2.415,0,0,0-2.4,2.4,2.454,2.454,0,0,0,2.4,2.4c-.969-.1-.931-1.594-.931-.293v4.021a5.07,5.07,0,0,0,0,1.589c.15.314.1-.351.271-.521l.655-.271H192.948c-.09,0-.426-.052-.485,0,.432-.378,1.029.831.931.926.026-.025-.006-.228,0-.261a9.371,9.371,0,0,0,0-1.675,38.678,38.678,0,0,0,0-4.072c0-.042.031-.316,0-.342-.146-.129,4.089-3.734-.271.627-.655.655-.86.143-.181.272a13.565,13.565,0,0,0,2.359,0h18.108C216.5,187.737,216.5,182.937,213.409,182.937Z"></path><path class="c" d="M72.672,190.317c1.84-4.554,3.532-9.261,5.767-13.64a46.164,46.164,0,0,1,9.726-12.75,26.693,26.693,0,0,1,4.792-3.661,70.137,70.137,0,0,1,6.4-3.022c5.2-2.322,10.471-4.458,15.783-6.5,5.209-2,10.456-3.908,15.749-5.673,2.916-.973,1.666-5.61-1.276-4.629-10.553,3.519-20.977,7.512-31.163,11.984-2.432,1.067-4.9,2.12-7.261,3.333a27.664,27.664,0,0,0-5.26,3.732,50.249,50.249,0,0,0-10.67,12.98c-2.979,5.191-4.982,11.031-7.217,16.567a2.417,2.417,0,0,0,1.676,2.953,2.459,2.459,0,0,0,2.952-1.677Z"></path><path class="c" d="M97.879,226.862q-4.122-2.538-8.46-4.695A2.4,2.4,0,0,0,87,226.312q4.328,2.167,8.46,4.695a2.4,2.4,0,0,0,2.422-4.145Z"></path><path class="c" d="M190.007,145.067c4.894,1.945,9.806,3.843,14.708,5.767,7.232,2.838,14.675,5.548,21.559,9.175,1.55.816,3.056,1.724,4.547,2.641.779.479,1.555.966,2.315,1.475.278.185.553.375.826.567.61.428-.028-.057.3.231.687.61,1.362,1.232,2.01,1.883.416.418.823.846,1.207,1.293.1.115.2.232.294.35,0,0,.445.574.2.255a30.468,30.468,0,0,1,2.742,4.571q.873,1.717,1.657,3.482c.042.1.082.192.125.287.256.56-.226-.553.013.028q.567,1.374,1.124,2.753,1.971,4.9,3.869,9.82c4.253,10.964,8.373,21.983,12.269,33.079a2.459,2.459,0,0,0,2.952,1.676,2.42,2.42,0,0,0,1.676-2.952c-3.6-10.243-7.386-20.418-11.289-30.547-2.189-5.681-4.265-11.463-6.794-17.005a35.161,35.161,0,0,0-6.35-10.173,40.193,40.193,0,0,0-8.922-6.536c-6.769-3.959-14.295-6.711-21.562-9.6-6.056-2.41-12.144-4.739-18.2-7.146a2.415,2.415,0,0,0-2.952,1.676,2.456,2.456,0,0,0,1.676,2.952Z"></path><path class="c" d="M165.247,316.848q1.759,2.5,3.55,4.98a2.435,2.435,0,0,0,3.284.861c10.227-7.219,20.128-14.934,30.093-22.508q4.47-3.4,8.927-6.812a2.479,2.479,0,0,0,.861-3.283,2.416,2.416,0,0,0-3.284-.861q-15.856,12.154-31.879,24.094c-2.367,1.758-4.732,3.525-7.141,5.226l3.284.861q-1.8-2.477-3.55-4.98a2.464,2.464,0,0,0-3.284-.861,2.419,2.419,0,0,0-.861,3.283Z"></path><path class="c" d="M146.782,282.256c-7.344-10.562-14.873-21.06-21.71-31.96L124.7,253.2c.256-.21.516-.416.776-.621l.528-.412c.2-.153.87-.672.291-.227q1.811-1.393,3.631-2.776,5.2-3.948,10.425-7.853c7.9-5.913,15.818-11.8,23.815-17.584,2.815-2.035,5.62-4.106,8.539-5.992l-3.284-.861c9.064,11.742,17.709,23.812,26.3,35.9q3.666,5.155,7.306,10.33a2.464,2.464,0,0,0,3.284.861,2.42,2.42,0,0,0,.861-3.283c-8.809-12.52-17.695-24.992-26.834-37.274q-3.352-4.5-6.776-8.956a2.452,2.452,0,0,0-3.284-.861c-6.4,4.137-12.482,8.838-18.614,13.361q-11.694,8.626-23.282,17.4c-2.371,1.8-4.779,3.566-7.08,5.456a2.407,2.407,0,0,0-.375,2.908c6.838,10.9,14.366,21.4,21.71,31.96a2.463,2.463,0,0,0,3.284.861,2.421,2.421,0,0,0,.861-3.283Z"></path><path class="c" d="M162.249,279.212a43.781,43.781,0,0,1-10.8,3.9h1.276a58.946,58.946,0,0,1-7.083-1.865,7.309,7.309,0,0,0-7.927,2.958,6.939,6.939,0,0,0,1.016,8.554c2.32,2.281,6.083,3.468,9.179,4.143,3.011.657,4.3-3.97,1.276-4.628a20.971,20.971,0,0,1-4.908-1.627c-1.121-.558-2.5-1.1-2.768-2.434a1.777,1.777,0,0,1,1.081-2.1c1.019-.58,1.613-.28,2.673.045q1.971.6,3.976,1.1c.616.152,1.235.3,1.859.418a6.425,6.425,0,0,0,2.795-.181,51.7,51.7,0,0,0,10.774-4.134,2.425,2.425,0,0,0,.861-3.284,2.451,2.451,0,0,0-3.284-.861Z"></path><path class="c" d="M141.385,292.379a12.042,12.042,0,0,0,.934,8.468,13.357,13.357,0,0,0,5.386,5.735l-1.1-1.435a29.151,29.151,0,0,0,4.818,9.513,12.534,12.534,0,0,0,3.64,3.514,14.293,14.293,0,0,0,4.307,1.394,9.31,9.31,0,0,0,4.4-.167,54.371,54.371,0,0,0,5.758-2.081,61.438,61.438,0,0,0,10.234-5.549,100.116,100.116,0,0,0,9.275-7.112c1.555-1.326,3.041-2.712,4.692-3.92.386-.283.775-.564,1.182-.818.155-.1.313-.193.473-.282.072-.041.713-.363.337-.189-.264.122.178-.067.271-.1q3.978-1.542,7.944-3.116c9.543-3.767,19.064-7.6,28.5-11.616,4.181-1.78,8.357-3.587,12.453-5.557a35.974,35.974,0,0,0,10.086-6.708,31.027,31.027,0,0,0,6.706-9.454,26.426,26.426,0,0,0,2.06-9.31c.388-7.223-1.092-14.732-2.89-21.7-.449-1.737-.943-3.462-1.429-5.189-.835-2.969-5.467-1.707-4.628,1.277,2.016,7.167,3.869,14.513,4.163,21.987a27.7,27.7,0,0,1-.748,8.5,22.92,22.92,0,0,1-5.353,9.162,31.22,31.22,0,0,1-10.125,7.161c-4.139,2-8.363,3.829-12.592,5.631-9.072,3.864-18.7,7.721-28.071,11.417-2.535,1-5.082,1.971-7.611,2.984-3.4,1.364-6.073,4.106-8.819,6.448a87.053,87.053,0,0,1-9.319,7.027,54.7,54.7,0,0,1-10.268,5.284q-1.364.514-2.756.951c-.47.147-.944.28-1.417.421-.623.186.157.116-.414.049a12.5,12.5,0,0,1-3.787-.863c.029.014-.405-.219-.525-.293-.242-.148-.026.009.02.045a5.1,5.1,0,0,1-.442-.439,26.056,26.056,0,0,1-1.835-2.08,19.973,19.973,0,0,1-2.464-4.178c-.753-1.705-.937-3.9-2.621-4.906a9.831,9.831,0,0,1-3.259-3.712,6.863,6.863,0,0,1-.535-4.916c.7-3-3.93-4.288-4.629-1.276Z"></path><path class="c" d="M164.672,279.212c-2.791-1.745-5.936-2.841-8.755-4.543a9.571,9.571,0,0,1-2.862-2.383c-.4-.632-.432-.717-.432-1.19a2.5,2.5,0,0,1,.06-.838,1.494,1.494,0,0,1,.36-.524,2.189,2.189,0,0,1,1.206-.328,32.421,32.421,0,0,1,3.343.039c2.405.08,4.777.361,7.167.617a36.58,36.58,0,0,1,5.733.922c2.2.6,4.366,1.481,6.526,2.216,2.195.747,4.261,1.581,6.632,1.305a10.721,10.721,0,0,0,2.97-.832l6.466-2.723a46.619,46.619,0,0,0,5.716-2.617c3.561-2.1,7.159-4.141,10.722-6.241a94.867,94.867,0,0,0,18.422-14.059c2.211-2.164-1.184-5.558-3.394-3.394a86.433,86.433,0,0,1-16.5,12.747c-3.607,2.15-7.265,4.211-10.884,6.339a15.532,15.532,0,0,1-2.378,1.342l-3.2,1.348c-2.167.912-4.33,1.836-6.5,2.738a5.768,5.768,0,0,1-3.416.548,53.613,53.613,0,0,1-6.36-2.136,39.442,39.442,0,0,0-6.586-1.788c-2.347-.372-4.715-.617-7.078-.862a50.77,50.77,0,0,0-7.082-.324,7.039,7.039,0,0,0-5.1,1.945,6.7,6.7,0,0,0-1.12,7.033,10.4,10.4,0,0,0,3.778,4.342c3.125,2.263,6.871,3.411,10.125,5.446,2.627,1.642,5.039-2.509,2.423-4.145Z"></path><path class="c" d="M43.6,209.405c3.684,13.179,7.283,26.39,11.547,39.4,2.013,6.14,3.949,12.516,6.793,18.332,2.769,5.663,7.4,11.045,13.372,13.426a20.568,20.568,0,0,0,4.891,1.081,29.035,29.035,0,0,0,5.814.355c3.7-.237,6.943-1.773,10.377-3.033a2.464,2.464,0,0,0,1.676-2.952,2.419,2.419,0,0,0-2.952-1.676c-2.673.98-5.4,2.4-8.235,2.785a23.724,23.724,0,0,1-8.8-.687c-5.349-1.415-9.445-6.638-11.814-11.351a75.553,75.553,0,0,1-3.313-8.3q-1.587-4.389-3.039-8.826c-2.043-6.209-3.93-12.469-5.749-18.748-2.031-7.011-3.973-14.047-5.938-21.077-.83-2.971-5.463-1.709-4.629,1.276Z"></path><path class="c" d="M43.108,191.816q-.588-.189-1.164-.412a9.012,9.012,0,0,1-.924-.392c-.941-.429-1.863-.9-2.77-1.4a67.122,67.122,0,0,1-5.884-3.654,57.358,57.358,0,0,1-10.42-8.941c-2.056-2.313-5.441,1.091-3.394,3.394a62.674,62.674,0,0,0,11.391,9.692,46.8,46.8,0,0,0,11.889,6.338c2.947.951,4.209-3.682,1.276-4.628Z"></path><path class="c" d="M48.722,154.28q-1.818-2.4-3.634-4.793c-.728-.962-3-3.394-1.68-4.6,1.447-1.322,3.835-.285,5.169.634a57.173,57.173,0,0,1,5.359,4.272c3.434,3.031,7.176,5.766,9.263,9.944,1.923,3.847,1.239,8.5,1.092,12.642a42.647,42.647,0,0,0,2.215,14.014c.895,2.947,5.53,1.691,4.629-1.276a63.958,63.958,0,0,1-1.737-6.921,31.947,31.947,0,0,1-.267-7,50,50,0,0,0,.013-7.623,19.2,19.2,0,0,0-2.434-7.429,24.646,24.646,0,0,0-5.375-6.171c-2.071-1.819-4.081-3.708-6.209-5.462S50.691,140.671,48,139.9a8.4,8.4,0,0,0-7.755,1.393c-5.463,4.692,1.338,11.462,4.331,15.409a2.478,2.478,0,0,0,3.284.861,2.416,2.416,0,0,0,.861-3.283Z"></path><path class="c" d="M49.018,155.316c-2.241-1.126-4.548-2.115-6.784-3.25-.587-.3-1.174-.6-1.743-.933-.207-.122-.409-.279-.624-.386q-.33-.234.163.136l-.376-.321c-1.822-1.631-3.687-3.217-5.511-4.847-3.444-3.078-6.873-6.219-10.575-8.989-3.453-2.585-8.143-2.7-11.07.749l3.769.485c-2.081-3.328-6.212-3.288-8.933-.765-2.27,2.105,1.131,5.494,3.394,3.394a1.664,1.664,0,0,1,.923-.482c.256-.014.286-.021.471.276a2.423,2.423,0,0,0,3.77.486c2.556-3.01,5.622.254,7.826,2.093,3.224,2.69,6.317,5.53,9.461,8.31a43.705,43.705,0,0,0,4.266,3.62,24.969,24.969,0,0,0,2.872,1.572c2.076,1.035,4.207,1.956,6.278,3,2.754,1.383,5.187-2.756,2.423-4.144Z"></path><path class="c" d="M36.361,160.029c-.28-.2-.557-.415-.832-.626.394.3.03.023-.142-.113l-.613-.484c-.868-.692-1.728-1.4-2.585-2.1q-3.148-2.592-6.253-5.234c-3.761-3.181-7.491-6.4-11.267-9.563a14.434,14.434,0,0,0-5.1-3.215,6.686,6.686,0,0,0-5.682.723,6.2,6.2,0,0,0-2.471,4.756c-.3,3.405,1.788,6.5,4.086,8.814,1.987,2,4.216,3.807,6.359,5.643,5.2,4.459,10.475,8.836,15.688,13.283a2.462,2.462,0,0,0,3.394,0,2.42,2.42,0,0,0,0-3.394c-4.313-3.68-8.666-7.313-12.989-10.982-1.821-1.546-3.644-3.091-5.434-4.672C10.289,150.9,7.474,148.89,6.37,146c.006.014-.186-.9-.164-.667a3.054,3.054,0,0,1,.169-1.715c.434-.755,1.758-.435,2.516-.082.323.15.727.579,1.052.654.208.048-.485-.4-.275-.213.175.154.365.292.545.44.54.441,1.074.891,1.608,1.34,3.548,2.987,7.066,6.012,10.607,9.008,3.775,3.194,7.519,6.48,11.51,9.4a2.417,2.417,0,0,0,3.284-.861,2.454,2.454,0,0,0-.861-3.283Z"></path><path class="c" d="M7.8,149.2A5.992,5.992,0,0,0,.026,154.57c-.273,3.4,1.658,5.971,3.532,8.575a129.359,129.359,0,0,0,14.994,17.269c2.218,2.152,5.616-1.238,3.394-3.394A125.308,125.308,0,0,1,9.8,163.552Q8.458,161.8,7.186,160a22.1,22.1,0,0,1-2.016-3.02c-.436-1.05-.852-3.808,1.349-3.148,2.965.889,4.232-3.743,1.276-4.629Z"></path><path class="c" d="M30.424,174.825a7.529,7.529,0,0,1,.247-1.069c.013-.039.156-.458.09-.284s.107-.232.127-.272a13.178,13.178,0,0,1,1.09-1.794c.423-.6.572-.778,1.12-1.45q.764-.937,1.563-1.845c2.042-2.323,4.231-4.511,6.438-6.675a2.4,2.4,0,1,0-3.394-3.394c-2.335,2.29-4.65,4.6-6.791,7.08-2.1,2.42-4.59,5.15-5.118,8.427a2.462,2.462,0,0,0,1.676,2.953,2.428,2.428,0,0,0,2.952-1.677Z"></path><path class="c" d="M91.777,228.627c-7.54-14.364-15.352-28.806-20.809-44.123a2.461,2.461,0,0,0-2.952-1.676,2.421,2.421,0,0,0-1.677,2.952c5.6,15.711,13.559,30.536,21.293,45.27,1.437,2.736,5.581.312,4.145-2.423Z"></path><path class="c" d="M190.514,141.917a37.2,37.2,0,0,1-15,8.123,81.759,81.759,0,0,1-10.382,2c-3.941.645-4.481,4.612-6.609,7.293l3.77.486c-1.924-2.919-3.037-7.126-6.986-7.733a81.462,81.462,0,0,1-10.732-1.992,46.8,46.8,0,0,1-15.423-8.011,2.415,2.415,0,0,0-3.284.861,2.461,2.461,0,0,0,.861,3.284,50.18,50.18,0,0,0,14.987,8,56.445,56.445,0,0,0,10.26,2.274c1.045.137,2.724-.085,3.389.871.489.7.811,1.6,1.235,2.352.486.857,1.006,1.69,1.548,2.512.761,1.155,2.75,1.77,3.769.485a23.707,23.707,0,0,0,2.887-4.59c.222-.468.385-1.084.893-1.323a8.584,8.584,0,0,1,2.3-.313,55.321,55.321,0,0,0,10.35-2.323,41.684,41.684,0,0,0,15.566-8.866c2.251-2.125-1.148-5.515-3.394-3.394Z"></path><path class="c" d="M225.754,245.593c.128-15.263.921-30.511,1.92-45.739q.463-7.058.975-14.111a2.421,2.421,0,0,0-2.4-2.4,2.446,2.446,0,0,0-2.4,2.4c-1.124,15.682-2.168,31.377-2.646,47.1q-.194,6.375-.249,12.755c-.026,3.089,4.774,3.092,4.8,0Z"></path><path class="c" d="M224.239,235.232q10.069-1.706,20.031-4.006c6.544-1.526,13.171-3.177,19.336-5.9a2.416,2.416,0,0,0,.861-3.284,2.461,2.461,0,0,0-3.284-.861,72.213,72.213,0,0,1-8.289,2.857c-3.394.988-6.824,1.848-10.267,2.646q-9.767,2.264-19.664,3.921a2.419,2.419,0,0,0-1.676,2.952,2.455,2.455,0,0,0,2.952,1.676Z"></path></svg>